<mxfile host="app.diagrams.net" modified="2021-11-16T11:18:38.595Z" agent="5.0 (Windows NT 10.0; Win64; x64) AppleWebKit/537.36 (KHTML, like Gecko) Chrome/95.0.4638.69 Safari/537.36" etag="kkiB5YQjfg9aRvw54QES" version="15.7.3" type="github">
  <diagram id="WJrlmK3pzfSMtfItPyl1" name="Page-1">
    <mxGraphModel dx="1038" dy="547" grid="1" gridSize="10" guides="1" tooltips="1" connect="1" arrows="1" fold="1" page="1" pageScale="1" pageWidth="827" pageHeight="1169" math="0" shadow="0">
      <root>
        <mxCell id="0" />
        <mxCell id="1" parent="0" />
        <mxCell id="QVAilVogzxP5J94PL00P-1" value="" style="rounded=0;whiteSpace=wrap;html=1;" vertex="1" parent="1">
          <mxGeometry y="80" width="240" height="160" as="geometry" />
        </mxCell>
        <mxCell id="QVAilVogzxP5J94PL00P-2" value="&lt;b&gt;Đăng nhập&lt;/b&gt;" style="text;html=1;align=center;verticalAlign=middle;whiteSpace=wrap;rounded=0;" vertex="1" parent="1">
          <mxGeometry x="80" y="80" width="80" height="30" as="geometry" />
        </mxCell>
        <mxCell id="QVAilVogzxP5J94PL00P-3" value="Tên đăng nhập" style="text;html=1;strokeColor=none;fillColor=none;align=center;verticalAlign=middle;whiteSpace=wrap;rounded=0;" vertex="1" parent="1">
          <mxGeometry y="120" width="90" height="30" as="geometry" />
        </mxCell>
        <mxCell id="QVAilVogzxP5J94PL00P-4" value="Mật khẩu" style="text;html=1;strokeColor=none;fillColor=none;align=center;verticalAlign=middle;whiteSpace=wrap;rounded=0;" vertex="1" parent="1">
          <mxGeometry y="170" width="90" height="30" as="geometry" />
        </mxCell>
        <mxCell id="QVAilVogzxP5J94PL00P-5" value="" style="rounded=0;whiteSpace=wrap;html=1;fillColor=#dae8fc;strokeColor=#6c8ebf;" vertex="1" parent="1">
          <mxGeometry x="100" y="120" width="120" height="30" as="geometry" />
        </mxCell>
        <mxCell id="QVAilVogzxP5J94PL00P-6" value="" style="rounded=0;whiteSpace=wrap;html=1;fillColor=#dae8fc;strokeColor=#6c8ebf;" vertex="1" parent="1">
          <mxGeometry x="100" y="169" width="120" height="30" as="geometry" />
        </mxCell>
        <mxCell id="QVAilVogzxP5J94PL00P-7" value="Đăng nhập" style="rounded=0;whiteSpace=wrap;html=1;fillColor=#dae8fc;strokeColor=#6c8ebf;" vertex="1" parent="1">
          <mxGeometry x="100" y="210" width="90" height="30" as="geometry" />
        </mxCell>
        <mxCell id="QVAilVogzxP5J94PL00P-8" value="" style="rounded=0;whiteSpace=wrap;html=1;" vertex="1" parent="1">
          <mxGeometry x="294" y="80" width="240" height="160" as="geometry" />
        </mxCell>
        <mxCell id="QVAilVogzxP5J94PL00P-9" value="&lt;b&gt;Nhân viên quản lý&lt;/b&gt;" style="text;html=1;strokeColor=none;fillColor=none;align=center;verticalAlign=middle;whiteSpace=wrap;rounded=0;" vertex="1" parent="1">
          <mxGeometry x="359" y="80" width="110" height="30" as="geometry" />
        </mxCell>
        <mxCell id="QVAilVogzxP5J94PL00P-10" value="Nhập xe" style="rounded=0;whiteSpace=wrap;html=1;fillColor=#dae8fc;strokeColor=#6c8ebf;" vertex="1" parent="1">
          <mxGeometry x="325" y="120" width="180" height="30" as="geometry" />
        </mxCell>
        <mxCell id="QVAilVogzxP5J94PL00P-11" value="Quản lý mẫu xe" style="rounded=0;whiteSpace=wrap;html=1;fillColor=#dae8fc;strokeColor=#6c8ebf;" vertex="1" parent="1">
          <mxGeometry x="325" y="160" width="180" height="30" as="geometry" />
        </mxCell>
        <mxCell id="QVAilVogzxP5J94PL00P-12" value="Xem thống kê" style="rounded=0;whiteSpace=wrap;html=1;fillColor=#dae8fc;strokeColor=#6c8ebf;" vertex="1" parent="1">
          <mxGeometry x="325" y="199" width="180" height="30" as="geometry" />
        </mxCell>
        <mxCell id="QVAilVogzxP5J94PL00P-13" value="" style="shape=flexArrow;endArrow=classic;html=1;rounded=0;exitX=1;exitY=0.5;exitDx=0;exitDy=0;entryX=0;entryY=0.5;entryDx=0;entryDy=0;" edge="1" parent="1" source="QVAilVogzxP5J94PL00P-1" target="QVAilVogzxP5J94PL00P-8">
          <mxGeometry width="50" height="50" relative="1" as="geometry">
            <mxPoint x="390" y="290" as="sourcePoint" />
            <mxPoint x="440" y="240" as="targetPoint" />
          </mxGeometry>
        </mxCell>
        <mxCell id="QVAilVogzxP5J94PL00P-14" value="" style="rounded=0;whiteSpace=wrap;html=1;" vertex="1" parent="1">
          <mxGeometry x="587" y="80" width="240" height="160" as="geometry" />
        </mxCell>
        <mxCell id="QVAilVogzxP5J94PL00P-15" value="" style="shape=flexArrow;endArrow=classic;html=1;rounded=0;exitX=1;exitY=0.5;exitDx=0;exitDy=0;entryX=0;entryY=0.5;entryDx=0;entryDy=0;" edge="1" parent="1">
          <mxGeometry width="50" height="50" relative="1" as="geometry">
            <mxPoint x="534" y="160" as="sourcePoint" />
            <mxPoint x="588" y="160" as="targetPoint" />
          </mxGeometry>
        </mxCell>
        <mxCell id="QVAilVogzxP5J94PL00P-16" value="&lt;b&gt;Xem thống kê&lt;/b&gt;" style="text;html=1;strokeColor=none;fillColor=none;align=center;verticalAlign=middle;whiteSpace=wrap;rounded=0;" vertex="1" parent="1">
          <mxGeometry x="652" y="80" width="110" height="30" as="geometry" />
        </mxCell>
        <mxCell id="QVAilVogzxP5J94PL00P-17" value="Thống kê hãng xe theo doanh thu" style="rounded=0;whiteSpace=wrap;html=1;fillColor=#dae8fc;strokeColor=#6c8ebf;" vertex="1" parent="1">
          <mxGeometry x="606.75" y="120" width="200.5" height="30" as="geometry" />
        </mxCell>
        <mxCell id="QVAilVogzxP5J94PL00P-18" value="Thống kê doanh thu theo tháng" style="rounded=0;whiteSpace=wrap;html=1;fillColor=#dae8fc;strokeColor=#6c8ebf;" vertex="1" parent="1">
          <mxGeometry x="606.75" y="160" width="200.5" height="30" as="geometry" />
        </mxCell>
        <mxCell id="QVAilVogzxP5J94PL00P-19" value="Thống kê doanh thui theo nhân viên" style="rounded=0;whiteSpace=wrap;html=1;fillColor=#dae8fc;strokeColor=#6c8ebf;" vertex="1" parent="1">
          <mxGeometry x="606.75" y="199" width="200.5" height="30" as="geometry" />
        </mxCell>
        <mxCell id="QVAilVogzxP5J94PL00P-20" value="" style="rounded=0;whiteSpace=wrap;html=1;" vertex="1" parent="1">
          <mxGeometry x="587" y="320" width="240" height="270" as="geometry" />
        </mxCell>
        <mxCell id="QVAilVogzxP5J94PL00P-21" value="&lt;b&gt;Thống kê hãng xe theo doanh thu&lt;/b&gt;" style="text;html=1;strokeColor=none;fillColor=none;align=center;verticalAlign=middle;whiteSpace=wrap;rounded=0;" vertex="1" parent="1">
          <mxGeometry x="601" y="320" width="212" height="30" as="geometry" />
        </mxCell>
        <mxCell id="QVAilVogzxP5J94PL00P-22" value="" style="rounded=0;whiteSpace=wrap;html=1;fillColor=#dae8fc;strokeColor=#6c8ebf;" vertex="1" parent="1">
          <mxGeometry x="690" y="360" width="117.25" height="30" as="geometry" />
        </mxCell>
        <mxCell id="QVAilVogzxP5J94PL00P-23" value="" style="rounded=0;whiteSpace=wrap;html=1;fillColor=#dae8fc;strokeColor=#6c8ebf;" vertex="1" parent="1">
          <mxGeometry x="690" y="400" width="117.25" height="30" as="geometry" />
        </mxCell>
        <mxCell id="QVAilVogzxP5J94PL00P-24" value="Xem thống kê" style="rounded=0;whiteSpace=wrap;html=1;fillColor=#dae8fc;strokeColor=#6c8ebf;" vertex="1" parent="1">
          <mxGeometry x="690" y="439" width="117.25" height="30" as="geometry" />
        </mxCell>
        <mxCell id="QVAilVogzxP5J94PL00P-26" value="Ngày bắt đầu" style="text;html=1;strokeColor=none;fillColor=none;align=center;verticalAlign=middle;whiteSpace=wrap;rounded=0;" vertex="1" parent="1">
          <mxGeometry x="587" y="360" width="83" height="30" as="geometry" />
        </mxCell>
        <mxCell id="QVAilVogzxP5J94PL00P-27" value="Ngày kết thúc" style="text;html=1;strokeColor=none;fillColor=none;align=center;verticalAlign=middle;whiteSpace=wrap;rounded=0;" vertex="1" parent="1">
          <mxGeometry x="587" y="400" width="83" height="30" as="geometry" />
        </mxCell>
        <mxCell id="QVAilVogzxP5J94PL00P-28" value="Back" style="rounded=0;whiteSpace=wrap;html=1;fillColor=#dae8fc;strokeColor=#6c8ebf;" vertex="1" parent="1">
          <mxGeometry x="600" y="439" width="70" height="30" as="geometry" />
        </mxCell>
        <mxCell id="QVAilVogzxP5J94PL00P-29" value="" style="shape=table;startSize=0;container=1;collapsible=0;childLayout=tableLayout;" vertex="1" parent="1">
          <mxGeometry x="587" y="490" width="240" height="105" as="geometry" />
        </mxCell>
        <mxCell id="QVAilVogzxP5J94PL00P-30" value="" style="shape=partialRectangle;collapsible=0;dropTarget=0;pointerEvents=0;fillColor=none;top=0;left=0;bottom=0;right=0;points=[[0,0.5],[1,0.5]];portConstraint=eastwest;" vertex="1" parent="QVAilVogzxP5J94PL00P-29">
          <mxGeometry width="240" height="50" as="geometry" />
        </mxCell>
        <mxCell id="QVAilVogzxP5J94PL00P-31" value="STT" style="shape=partialRectangle;html=1;whiteSpace=wrap;connectable=0;overflow=hidden;fillColor=#1ba1e2;top=0;left=0;bottom=0;right=0;pointerEvents=1;fontColor=#ffffff;strokeColor=#006EAF;" vertex="1" parent="QVAilVogzxP5J94PL00P-30">
          <mxGeometry width="33" height="50" as="geometry">
            <mxRectangle width="33" height="50" as="alternateBounds" />
          </mxGeometry>
        </mxCell>
        <mxCell id="QVAilVogzxP5J94PL00P-32" value="Tên hãng xe" style="shape=partialRectangle;html=1;whiteSpace=wrap;connectable=0;overflow=hidden;fillColor=#1ba1e2;top=0;left=0;bottom=0;right=0;pointerEvents=1;fontColor=#ffffff;strokeColor=#006EAF;" vertex="1" parent="QVAilVogzxP5J94PL00P-30">
          <mxGeometry x="33" width="60" height="50" as="geometry">
            <mxRectangle width="60" height="50" as="alternateBounds" />
          </mxGeometry>
        </mxCell>
        <mxCell id="QVAilVogzxP5J94PL00P-33" value="Số lượng xe bán được" style="shape=partialRectangle;html=1;whiteSpace=wrap;connectable=0;overflow=hidden;fillColor=#1ba1e2;top=0;left=0;bottom=0;right=0;pointerEvents=1;fontColor=#ffffff;strokeColor=#006EAF;" vertex="1" parent="QVAilVogzxP5J94PL00P-30">
          <mxGeometry x="93" width="70" height="50" as="geometry">
            <mxRectangle width="70" height="50" as="alternateBounds" />
          </mxGeometry>
        </mxCell>
        <mxCell id="QVAilVogzxP5J94PL00P-34" value="Tổng doanh thu" style="shape=partialRectangle;html=1;whiteSpace=wrap;connectable=0;overflow=hidden;fillColor=#1ba1e2;top=0;left=0;bottom=0;right=0;pointerEvents=1;fontColor=#ffffff;strokeColor=#006EAF;" vertex="1" parent="QVAilVogzxP5J94PL00P-30">
          <mxGeometry x="163" width="77" height="50" as="geometry">
            <mxRectangle width="77" height="50" as="alternateBounds" />
          </mxGeometry>
        </mxCell>
        <mxCell id="QVAilVogzxP5J94PL00P-35" value="" style="shape=partialRectangle;collapsible=0;dropTarget=0;pointerEvents=0;fillColor=none;top=0;left=0;bottom=0;right=0;points=[[0,0.5],[1,0.5]];portConstraint=eastwest;" vertex="1" parent="QVAilVogzxP5J94PL00P-29">
          <mxGeometry y="50" width="240" height="27" as="geometry" />
        </mxCell>
        <mxCell id="QVAilVogzxP5J94PL00P-36" value="1" style="shape=partialRectangle;html=1;whiteSpace=wrap;connectable=0;overflow=hidden;fillColor=#dae8fc;top=0;left=0;bottom=0;right=0;pointerEvents=1;strokeColor=#6c8ebf;" vertex="1" parent="QVAilVogzxP5J94PL00P-35">
          <mxGeometry width="33" height="27" as="geometry">
            <mxRectangle width="33" height="27" as="alternateBounds" />
          </mxGeometry>
        </mxCell>
        <mxCell id="QVAilVogzxP5J94PL00P-37" value="" style="shape=partialRectangle;html=1;whiteSpace=wrap;connectable=0;overflow=hidden;fillColor=#dae8fc;top=0;left=0;bottom=0;right=0;pointerEvents=1;strokeColor=#6c8ebf;" vertex="1" parent="QVAilVogzxP5J94PL00P-35">
          <mxGeometry x="33" width="60" height="27" as="geometry">
            <mxRectangle width="60" height="27" as="alternateBounds" />
          </mxGeometry>
        </mxCell>
        <mxCell id="QVAilVogzxP5J94PL00P-38" value="" style="shape=partialRectangle;html=1;whiteSpace=wrap;connectable=0;overflow=hidden;fillColor=#dae8fc;top=0;left=0;bottom=0;right=0;pointerEvents=1;strokeColor=#6c8ebf;" vertex="1" parent="QVAilVogzxP5J94PL00P-35">
          <mxGeometry x="93" width="70" height="27" as="geometry">
            <mxRectangle width="70" height="27" as="alternateBounds" />
          </mxGeometry>
        </mxCell>
        <mxCell id="QVAilVogzxP5J94PL00P-39" value="" style="shape=partialRectangle;html=1;whiteSpace=wrap;connectable=0;overflow=hidden;fillColor=#dae8fc;top=0;left=0;bottom=0;right=0;pointerEvents=1;strokeColor=#6c8ebf;" vertex="1" parent="QVAilVogzxP5J94PL00P-35">
          <mxGeometry x="163" width="77" height="27" as="geometry">
            <mxRectangle width="77" height="27" as="alternateBounds" />
          </mxGeometry>
        </mxCell>
        <mxCell id="QVAilVogzxP5J94PL00P-40" value="" style="shape=partialRectangle;collapsible=0;dropTarget=0;pointerEvents=0;fillColor=none;top=0;left=0;bottom=0;right=0;points=[[0,0.5],[1,0.5]];portConstraint=eastwest;" vertex="1" parent="QVAilVogzxP5J94PL00P-29">
          <mxGeometry y="77" width="240" height="28" as="geometry" />
        </mxCell>
        <mxCell id="QVAilVogzxP5J94PL00P-41" value="2" style="shape=partialRectangle;html=1;whiteSpace=wrap;connectable=0;overflow=hidden;fillColor=#dae8fc;top=0;left=0;bottom=0;right=0;pointerEvents=1;strokeColor=#6c8ebf;" vertex="1" parent="QVAilVogzxP5J94PL00P-40">
          <mxGeometry width="33" height="28" as="geometry">
            <mxRectangle width="33" height="28" as="alternateBounds" />
          </mxGeometry>
        </mxCell>
        <mxCell id="QVAilVogzxP5J94PL00P-42" value="" style="shape=partialRectangle;html=1;whiteSpace=wrap;connectable=0;overflow=hidden;fillColor=#dae8fc;top=0;left=0;bottom=0;right=0;pointerEvents=1;strokeColor=#6c8ebf;" vertex="1" parent="QVAilVogzxP5J94PL00P-40">
          <mxGeometry x="33" width="60" height="28" as="geometry">
            <mxRectangle width="60" height="28" as="alternateBounds" />
          </mxGeometry>
        </mxCell>
        <mxCell id="QVAilVogzxP5J94PL00P-43" value="" style="shape=partialRectangle;html=1;whiteSpace=wrap;connectable=0;overflow=hidden;fillColor=#dae8fc;top=0;left=0;bottom=0;right=0;pointerEvents=1;strokeColor=#6c8ebf;" vertex="1" parent="QVAilVogzxP5J94PL00P-40">
          <mxGeometry x="93" width="70" height="28" as="geometry">
            <mxRectangle width="70" height="28" as="alternateBounds" />
          </mxGeometry>
        </mxCell>
        <mxCell id="QVAilVogzxP5J94PL00P-44" value="" style="shape=partialRectangle;html=1;whiteSpace=wrap;connectable=0;overflow=hidden;fillColor=#dae8fc;top=0;left=0;bottom=0;right=0;pointerEvents=1;strokeColor=#6c8ebf;" vertex="1" parent="QVAilVogzxP5J94PL00P-40">
          <mxGeometry x="163" width="77" height="28" as="geometry">
            <mxRectangle width="77" height="28" as="alternateBounds" />
          </mxGeometry>
        </mxCell>
        <mxCell id="QVAilVogzxP5J94PL00P-50" value="" style="shape=flexArrow;endArrow=classic;html=1;rounded=0;exitX=0.5;exitY=1;exitDx=0;exitDy=0;entryX=0.5;entryY=0;entryDx=0;entryDy=0;" edge="1" parent="1" source="QVAilVogzxP5J94PL00P-14" target="QVAilVogzxP5J94PL00P-21">
          <mxGeometry width="50" height="50" relative="1" as="geometry">
            <mxPoint x="652" y="260" as="sourcePoint" />
            <mxPoint x="706" y="260" as="targetPoint" />
          </mxGeometry>
        </mxCell>
        <mxCell id="QVAilVogzxP5J94PL00P-51" value="" style="shape=flexArrow;endArrow=classic;html=1;rounded=0;entryX=0.5;entryY=1;entryDx=0;entryDy=0;exitX=0;exitY=0;exitDx=0;exitDy=0;" edge="1" parent="1" source="QVAilVogzxP5J94PL00P-20" target="QVAilVogzxP5J94PL00P-8">
          <mxGeometry width="50" height="50" relative="1" as="geometry">
            <mxPoint x="710" y="320" as="sourcePoint" />
            <mxPoint x="544" y="290" as="targetPoint" />
          </mxGeometry>
        </mxCell>
        <mxCell id="QVAilVogzxP5J94PL00P-52" value="" style="rounded=0;whiteSpace=wrap;html=1;" vertex="1" parent="1">
          <mxGeometry x="294" y="320" width="240" height="230" as="geometry" />
        </mxCell>
        <mxCell id="QVAilVogzxP5J94PL00P-53" value="&lt;b&gt;Thống kê xe của hãng xe theo doanh thu&lt;/b&gt;" style="text;html=1;strokeColor=none;fillColor=none;align=center;verticalAlign=middle;whiteSpace=wrap;rounded=0;" vertex="1" parent="1">
          <mxGeometry x="308" y="320" width="212" height="30" as="geometry" />
        </mxCell>
        <mxCell id="QVAilVogzxP5J94PL00P-54" value="Quay lại trang trước" style="rounded=0;whiteSpace=wrap;html=1;fillColor=#dae8fc;strokeColor=#6c8ebf;" vertex="1" parent="1">
          <mxGeometry x="320" y="360" width="190" height="30" as="geometry" />
        </mxCell>
        <mxCell id="QVAilVogzxP5J94PL00P-55" value="Quay về giao diện NVQL" style="rounded=0;whiteSpace=wrap;html=1;fillColor=#dae8fc;strokeColor=#6c8ebf;" vertex="1" parent="1">
          <mxGeometry x="320" y="400" width="190" height="30" as="geometry" />
        </mxCell>
        <mxCell id="QVAilVogzxP5J94PL00P-60" value="" style="shape=table;startSize=0;container=1;collapsible=0;childLayout=tableLayout;" vertex="1" parent="1">
          <mxGeometry x="294" y="453" width="240" height="104" as="geometry" />
        </mxCell>
        <mxCell id="QVAilVogzxP5J94PL00P-61" value="" style="shape=partialRectangle;collapsible=0;dropTarget=0;pointerEvents=0;fillColor=none;top=0;left=0;bottom=0;right=0;points=[[0,0.5],[1,0.5]];portConstraint=eastwest;" vertex="1" parent="QVAilVogzxP5J94PL00P-60">
          <mxGeometry width="240" height="50" as="geometry" />
        </mxCell>
        <mxCell id="QVAilVogzxP5J94PL00P-62" value="STT" style="shape=partialRectangle;html=1;whiteSpace=wrap;connectable=0;overflow=hidden;fillColor=#1ba1e2;top=0;left=0;bottom=0;right=0;pointerEvents=1;fontColor=#ffffff;strokeColor=#006EAF;" vertex="1" parent="QVAilVogzxP5J94PL00P-61">
          <mxGeometry width="26" height="50" as="geometry">
            <mxRectangle width="26" height="50" as="alternateBounds" />
          </mxGeometry>
        </mxCell>
        <mxCell id="QVAilVogzxP5J94PL00P-63" value="Tên xe" style="shape=partialRectangle;html=1;whiteSpace=wrap;connectable=0;overflow=hidden;fillColor=#1ba1e2;top=0;left=0;bottom=0;right=0;pointerEvents=1;fontColor=#ffffff;strokeColor=#006EAF;" vertex="1" parent="QVAilVogzxP5J94PL00P-61">
          <mxGeometry x="26" width="70" height="50" as="geometry">
            <mxRectangle width="70" height="50" as="alternateBounds" />
          </mxGeometry>
        </mxCell>
        <mxCell id="QVAilVogzxP5J94PL00P-64" value="Số lượng xe bán được" style="shape=partialRectangle;html=1;whiteSpace=wrap;connectable=0;overflow=hidden;fillColor=#1ba1e2;top=0;left=0;bottom=0;right=0;pointerEvents=1;fontColor=#ffffff;strokeColor=#006EAF;" vertex="1" parent="QVAilVogzxP5J94PL00P-61">
          <mxGeometry x="96" width="67" height="50" as="geometry">
            <mxRectangle width="67" height="50" as="alternateBounds" />
          </mxGeometry>
        </mxCell>
        <mxCell id="QVAilVogzxP5J94PL00P-65" value="Tổng tiền" style="shape=partialRectangle;html=1;whiteSpace=wrap;connectable=0;overflow=hidden;fillColor=#1ba1e2;top=0;left=0;bottom=0;right=0;pointerEvents=1;fontColor=#ffffff;strokeColor=#006EAF;" vertex="1" parent="QVAilVogzxP5J94PL00P-61">
          <mxGeometry x="163" width="77" height="50" as="geometry">
            <mxRectangle width="77" height="50" as="alternateBounds" />
          </mxGeometry>
        </mxCell>
        <mxCell id="QVAilVogzxP5J94PL00P-66" value="" style="shape=partialRectangle;collapsible=0;dropTarget=0;pointerEvents=0;fillColor=none;top=0;left=0;bottom=0;right=0;points=[[0,0.5],[1,0.5]];portConstraint=eastwest;" vertex="1" parent="QVAilVogzxP5J94PL00P-60">
          <mxGeometry y="50" width="240" height="27" as="geometry" />
        </mxCell>
        <mxCell id="QVAilVogzxP5J94PL00P-67" value="1" style="shape=partialRectangle;html=1;whiteSpace=wrap;connectable=0;overflow=hidden;fillColor=#dae8fc;top=0;left=0;bottom=0;right=0;pointerEvents=1;strokeColor=#6c8ebf;" vertex="1" parent="QVAilVogzxP5J94PL00P-66">
          <mxGeometry width="26" height="27" as="geometry">
            <mxRectangle width="26" height="27" as="alternateBounds" />
          </mxGeometry>
        </mxCell>
        <mxCell id="QVAilVogzxP5J94PL00P-68" value="" style="shape=partialRectangle;html=1;whiteSpace=wrap;connectable=0;overflow=hidden;fillColor=#dae8fc;top=0;left=0;bottom=0;right=0;pointerEvents=1;strokeColor=#6c8ebf;" vertex="1" parent="QVAilVogzxP5J94PL00P-66">
          <mxGeometry x="26" width="70" height="27" as="geometry">
            <mxRectangle width="70" height="27" as="alternateBounds" />
          </mxGeometry>
        </mxCell>
        <mxCell id="QVAilVogzxP5J94PL00P-69" value="" style="shape=partialRectangle;html=1;whiteSpace=wrap;connectable=0;overflow=hidden;fillColor=#dae8fc;top=0;left=0;bottom=0;right=0;pointerEvents=1;strokeColor=#6c8ebf;" vertex="1" parent="QVAilVogzxP5J94PL00P-66">
          <mxGeometry x="96" width="67" height="27" as="geometry">
            <mxRectangle width="67" height="27" as="alternateBounds" />
          </mxGeometry>
        </mxCell>
        <mxCell id="QVAilVogzxP5J94PL00P-70" value="" style="shape=partialRectangle;html=1;whiteSpace=wrap;connectable=0;overflow=hidden;fillColor=#dae8fc;top=0;left=0;bottom=0;right=0;pointerEvents=1;strokeColor=#6c8ebf;" vertex="1" parent="QVAilVogzxP5J94PL00P-66">
          <mxGeometry x="163" width="77" height="27" as="geometry">
            <mxRectangle width="77" height="27" as="alternateBounds" />
          </mxGeometry>
        </mxCell>
        <mxCell id="QVAilVogzxP5J94PL00P-76" value="" style="shape=partialRectangle;collapsible=0;dropTarget=0;pointerEvents=0;fillColor=none;top=0;left=0;bottom=0;right=0;points=[[0,0.5],[1,0.5]];portConstraint=eastwest;" vertex="1" parent="QVAilVogzxP5J94PL00P-60">
          <mxGeometry y="77" width="240" height="27" as="geometry" />
        </mxCell>
        <mxCell id="QVAilVogzxP5J94PL00P-77" value="2" style="shape=partialRectangle;html=1;whiteSpace=wrap;connectable=0;overflow=hidden;fillColor=#dae8fc;top=0;left=0;bottom=0;right=0;pointerEvents=1;strokeColor=#6c8ebf;" vertex="1" parent="QVAilVogzxP5J94PL00P-76">
          <mxGeometry width="26" height="27" as="geometry">
            <mxRectangle width="26" height="27" as="alternateBounds" />
          </mxGeometry>
        </mxCell>
        <mxCell id="QVAilVogzxP5J94PL00P-78" value="" style="shape=partialRectangle;html=1;whiteSpace=wrap;connectable=0;overflow=hidden;fillColor=#dae8fc;top=0;left=0;bottom=0;right=0;pointerEvents=1;strokeColor=#6c8ebf;" vertex="1" parent="QVAilVogzxP5J94PL00P-76">
          <mxGeometry x="26" width="70" height="27" as="geometry">
            <mxRectangle width="70" height="27" as="alternateBounds" />
          </mxGeometry>
        </mxCell>
        <mxCell id="QVAilVogzxP5J94PL00P-79" value="" style="shape=partialRectangle;html=1;whiteSpace=wrap;connectable=0;overflow=hidden;fillColor=#dae8fc;top=0;left=0;bottom=0;right=0;pointerEvents=1;strokeColor=#6c8ebf;" vertex="1" parent="QVAilVogzxP5J94PL00P-76">
          <mxGeometry x="96" width="67" height="27" as="geometry">
            <mxRectangle width="67" height="27" as="alternateBounds" />
          </mxGeometry>
        </mxCell>
        <mxCell id="QVAilVogzxP5J94PL00P-80" value="" style="shape=partialRectangle;html=1;whiteSpace=wrap;connectable=0;overflow=hidden;fillColor=#dae8fc;top=0;left=0;bottom=0;right=0;pointerEvents=1;strokeColor=#6c8ebf;" vertex="1" parent="QVAilVogzxP5J94PL00P-76">
          <mxGeometry x="163" width="77" height="27" as="geometry">
            <mxRectangle width="77" height="27" as="alternateBounds" />
          </mxGeometry>
        </mxCell>
        <mxCell id="QVAilVogzxP5J94PL00P-81" value="" style="shape=flexArrow;endArrow=classic;startArrow=classic;html=1;rounded=0;entryX=0.013;entryY=0.429;entryDx=0;entryDy=0;entryPerimeter=0;" edge="1" parent="1" target="QVAilVogzxP5J94PL00P-20">
          <mxGeometry width="100" height="100" relative="1" as="geometry">
            <mxPoint x="530" y="440" as="sourcePoint" />
            <mxPoint x="460" y="350" as="targetPoint" />
          </mxGeometry>
        </mxCell>
        <mxCell id="QVAilVogzxP5J94PL00P-82" value="" style="shape=flexArrow;endArrow=classic;html=1;rounded=0;entryX=0.453;entryY=1.014;entryDx=0;entryDy=0;entryPerimeter=0;exitX=0.451;exitY=0.02;exitDx=0;exitDy=0;exitPerimeter=0;" edge="1" parent="1" source="QVAilVogzxP5J94PL00P-53" target="QVAilVogzxP5J94PL00P-8">
          <mxGeometry width="50" height="50" relative="1" as="geometry">
            <mxPoint x="390" y="420" as="sourcePoint" />
            <mxPoint x="440" y="370" as="targetPoint" />
          </mxGeometry>
        </mxCell>
        <mxCell id="QVAilVogzxP5J94PL00P-103" value="" style="rounded=0;whiteSpace=wrap;html=1;" vertex="1" parent="1">
          <mxGeometry y="321.5" width="240" height="238.5" as="geometry" />
        </mxCell>
        <mxCell id="QVAilVogzxP5J94PL00P-104" value="&lt;b&gt;Danh sách chi tiết hóa đơn&lt;/b&gt;" style="text;html=1;strokeColor=none;fillColor=none;align=center;verticalAlign=middle;whiteSpace=wrap;rounded=0;" vertex="1" parent="1">
          <mxGeometry x="14" y="321.5" width="212" height="30" as="geometry" />
        </mxCell>
        <mxCell id="QVAilVogzxP5J94PL00P-105" value="Quay lại trang trước" style="rounded=0;whiteSpace=wrap;html=1;fillColor=#dae8fc;strokeColor=#6c8ebf;" vertex="1" parent="1">
          <mxGeometry x="26" y="361.5" width="190" height="30" as="geometry" />
        </mxCell>
        <mxCell id="QVAilVogzxP5J94PL00P-106" value="Quay về giao diện NVQL" style="rounded=0;whiteSpace=wrap;html=1;fillColor=#dae8fc;strokeColor=#6c8ebf;" vertex="1" parent="1">
          <mxGeometry x="26" y="401.5" width="190" height="30" as="geometry" />
        </mxCell>
        <mxCell id="QVAilVogzxP5J94PL00P-128" value="" style="shape=flexArrow;endArrow=classic;startArrow=classic;html=1;rounded=0;entryX=0.013;entryY=0.429;entryDx=0;entryDy=0;entryPerimeter=0;" edge="1" parent="1">
          <mxGeometry width="100" height="100" relative="1" as="geometry">
            <mxPoint x="233.88" y="438" as="sourcePoint" />
            <mxPoint x="293.9999999999999" y="438.12" as="targetPoint" />
          </mxGeometry>
        </mxCell>
        <mxCell id="QVAilVogzxP5J94PL00P-129" value="" style="shape=flexArrow;endArrow=classic;html=1;rounded=0;entryX=0.397;entryY=1.034;entryDx=0;entryDy=0;exitX=0.5;exitY=0;exitDx=0;exitDy=0;entryPerimeter=0;" edge="1" parent="1" source="QVAilVogzxP5J94PL00P-104" target="QVAilVogzxP5J94PL00P-8">
          <mxGeometry width="50" height="50" relative="1" as="geometry">
            <mxPoint x="206.5" y="330" as="sourcePoint" />
            <mxPoint x="33.5" y="250" as="targetPoint" />
          </mxGeometry>
        </mxCell>
        <mxCell id="QVAilVogzxP5J94PL00P-143" value="" style="shape=table;startSize=0;container=1;collapsible=0;childLayout=tableLayout;" vertex="1" parent="1">
          <mxGeometry y="453" width="240" height="107" as="geometry" />
        </mxCell>
        <mxCell id="QVAilVogzxP5J94PL00P-144" value="" style="shape=partialRectangle;collapsible=0;dropTarget=0;pointerEvents=0;fillColor=none;top=0;left=0;bottom=0;right=0;points=[[0,0.5],[1,0.5]];portConstraint=eastwest;" vertex="1" parent="QVAilVogzxP5J94PL00P-143">
          <mxGeometry width="240" height="36" as="geometry" />
        </mxCell>
        <mxCell id="QVAilVogzxP5J94PL00P-145" value="STT" style="shape=partialRectangle;html=1;whiteSpace=wrap;connectable=0;overflow=hidden;fillColor=#1ba1e2;top=0;left=0;bottom=0;right=0;pointerEvents=1;fontColor=#ffffff;strokeColor=#006EAF;" vertex="1" parent="QVAilVogzxP5J94PL00P-144">
          <mxGeometry width="20" height="36" as="geometry">
            <mxRectangle width="20" height="36" as="alternateBounds" />
          </mxGeometry>
        </mxCell>
        <mxCell id="QVAilVogzxP5J94PL00P-146" value="Tên Khách hàng" style="shape=partialRectangle;html=1;whiteSpace=wrap;connectable=0;overflow=hidden;fillColor=#1ba1e2;top=0;left=0;bottom=0;right=0;pointerEvents=1;fontColor=#ffffff;strokeColor=#006EAF;" vertex="1" parent="QVAilVogzxP5J94PL00P-144">
          <mxGeometry x="20" width="49" height="36" as="geometry">
            <mxRectangle width="49" height="36" as="alternateBounds" />
          </mxGeometry>
        </mxCell>
        <mxCell id="QVAilVogzxP5J94PL00P-147" value="Ngày mua xe" style="shape=partialRectangle;html=1;whiteSpace=wrap;connectable=0;overflow=hidden;fillColor=#1ba1e2;top=0;left=0;bottom=0;right=0;pointerEvents=1;fontColor=#ffffff;strokeColor=#006EAF;" vertex="1" parent="QVAilVogzxP5J94PL00P-144">
          <mxGeometry x="69" width="34" height="36" as="geometry">
            <mxRectangle width="34" height="36" as="alternateBounds" />
          </mxGeometry>
        </mxCell>
        <mxCell id="QVAilVogzxP5J94PL00P-148" value="Tên xe" style="shape=partialRectangle;html=1;whiteSpace=wrap;connectable=0;overflow=hidden;fillColor=#1ba1e2;top=0;left=0;bottom=0;right=0;pointerEvents=1;fontColor=#ffffff;strokeColor=#006EAF;" vertex="1" parent="QVAilVogzxP5J94PL00P-144">
          <mxGeometry x="103" width="34" height="36" as="geometry">
            <mxRectangle width="34" height="36" as="alternateBounds" />
          </mxGeometry>
        </mxCell>
        <mxCell id="QVAilVogzxP5J94PL00P-149" value="SĐT" style="shape=partialRectangle;html=1;whiteSpace=wrap;connectable=0;overflow=hidden;fillColor=#1ba1e2;top=0;left=0;bottom=0;right=0;pointerEvents=1;fontColor=#ffffff;strokeColor=#006EAF;" vertex="1" parent="QVAilVogzxP5J94PL00P-144">
          <mxGeometry x="137" width="34" height="36" as="geometry">
            <mxRectangle width="34" height="36" as="alternateBounds" />
          </mxGeometry>
        </mxCell>
        <mxCell id="QVAilVogzxP5J94PL00P-150" value="Giảm giá" style="shape=partialRectangle;html=1;whiteSpace=wrap;connectable=0;overflow=hidden;fillColor=#1ba1e2;top=0;left=0;bottom=0;right=0;pointerEvents=1;fontColor=#ffffff;strokeColor=#006EAF;" vertex="1" parent="QVAilVogzxP5J94PL00P-144">
          <mxGeometry x="171" width="35" height="36" as="geometry">
            <mxRectangle width="35" height="36" as="alternateBounds" />
          </mxGeometry>
        </mxCell>
        <mxCell id="QVAilVogzxP5J94PL00P-151" value="Tổng tiền" style="shape=partialRectangle;html=1;whiteSpace=wrap;connectable=0;overflow=hidden;fillColor=#1ba1e2;top=0;left=0;bottom=0;right=0;pointerEvents=1;fontColor=#ffffff;strokeColor=#006EAF;" vertex="1" parent="QVAilVogzxP5J94PL00P-144">
          <mxGeometry x="206" width="34" height="36" as="geometry">
            <mxRectangle width="34" height="36" as="alternateBounds" />
          </mxGeometry>
        </mxCell>
        <mxCell id="QVAilVogzxP5J94PL00P-152" value="" style="shape=partialRectangle;collapsible=0;dropTarget=0;pointerEvents=0;fillColor=none;top=0;left=0;bottom=0;right=0;points=[[0,0.5],[1,0.5]];portConstraint=eastwest;" vertex="1" parent="QVAilVogzxP5J94PL00P-143">
          <mxGeometry y="36" width="240" height="35" as="geometry" />
        </mxCell>
        <mxCell id="QVAilVogzxP5J94PL00P-153" value="1" style="shape=partialRectangle;html=1;whiteSpace=wrap;connectable=0;overflow=hidden;fillColor=#dae8fc;top=0;left=0;bottom=0;right=0;pointerEvents=1;strokeColor=#6c8ebf;" vertex="1" parent="QVAilVogzxP5J94PL00P-152">
          <mxGeometry width="20" height="35" as="geometry">
            <mxRectangle width="20" height="35" as="alternateBounds" />
          </mxGeometry>
        </mxCell>
        <mxCell id="QVAilVogzxP5J94PL00P-154" value="" style="shape=partialRectangle;html=1;whiteSpace=wrap;connectable=0;overflow=hidden;fillColor=#dae8fc;top=0;left=0;bottom=0;right=0;pointerEvents=1;strokeColor=#6c8ebf;" vertex="1" parent="QVAilVogzxP5J94PL00P-152">
          <mxGeometry x="20" width="49" height="35" as="geometry">
            <mxRectangle width="49" height="35" as="alternateBounds" />
          </mxGeometry>
        </mxCell>
        <mxCell id="QVAilVogzxP5J94PL00P-155" value="" style="shape=partialRectangle;html=1;whiteSpace=wrap;connectable=0;overflow=hidden;fillColor=#dae8fc;top=0;left=0;bottom=0;right=0;pointerEvents=1;strokeColor=#6c8ebf;" vertex="1" parent="QVAilVogzxP5J94PL00P-152">
          <mxGeometry x="69" width="34" height="35" as="geometry">
            <mxRectangle width="34" height="35" as="alternateBounds" />
          </mxGeometry>
        </mxCell>
        <mxCell id="QVAilVogzxP5J94PL00P-156" value="" style="shape=partialRectangle;html=1;whiteSpace=wrap;connectable=0;overflow=hidden;fillColor=#dae8fc;top=0;left=0;bottom=0;right=0;pointerEvents=1;strokeColor=#6c8ebf;" vertex="1" parent="QVAilVogzxP5J94PL00P-152">
          <mxGeometry x="103" width="34" height="35" as="geometry">
            <mxRectangle width="34" height="35" as="alternateBounds" />
          </mxGeometry>
        </mxCell>
        <mxCell id="QVAilVogzxP5J94PL00P-157" value="" style="shape=partialRectangle;html=1;whiteSpace=wrap;connectable=0;overflow=hidden;fillColor=#dae8fc;top=0;left=0;bottom=0;right=0;pointerEvents=1;strokeColor=#6c8ebf;" vertex="1" parent="QVAilVogzxP5J94PL00P-152">
          <mxGeometry x="137" width="34" height="35" as="geometry">
            <mxRectangle width="34" height="35" as="alternateBounds" />
          </mxGeometry>
        </mxCell>
        <mxCell id="QVAilVogzxP5J94PL00P-158" value="" style="shape=partialRectangle;html=1;whiteSpace=wrap;connectable=0;overflow=hidden;fillColor=#dae8fc;top=0;left=0;bottom=0;right=0;pointerEvents=1;strokeColor=#6c8ebf;" vertex="1" parent="QVAilVogzxP5J94PL00P-152">
          <mxGeometry x="171" width="35" height="35" as="geometry">
            <mxRectangle width="35" height="35" as="alternateBounds" />
          </mxGeometry>
        </mxCell>
        <mxCell id="QVAilVogzxP5J94PL00P-159" value="" style="shape=partialRectangle;html=1;whiteSpace=wrap;connectable=0;overflow=hidden;fillColor=#dae8fc;top=0;left=0;bottom=0;right=0;pointerEvents=1;strokeColor=#6c8ebf;" vertex="1" parent="QVAilVogzxP5J94PL00P-152">
          <mxGeometry x="206" width="34" height="35" as="geometry">
            <mxRectangle width="34" height="35" as="alternateBounds" />
          </mxGeometry>
        </mxCell>
        <mxCell id="QVAilVogzxP5J94PL00P-160" value="" style="shape=partialRectangle;collapsible=0;dropTarget=0;pointerEvents=0;fillColor=none;top=0;left=0;bottom=0;right=0;points=[[0,0.5],[1,0.5]];portConstraint=eastwest;" vertex="1" parent="QVAilVogzxP5J94PL00P-143">
          <mxGeometry y="71" width="240" height="36" as="geometry" />
        </mxCell>
        <mxCell id="QVAilVogzxP5J94PL00P-161" value="2" style="shape=partialRectangle;html=1;whiteSpace=wrap;connectable=0;overflow=hidden;fillColor=#dae8fc;top=0;left=0;bottom=0;right=0;pointerEvents=1;strokeColor=#6c8ebf;" vertex="1" parent="QVAilVogzxP5J94PL00P-160">
          <mxGeometry width="20" height="36" as="geometry">
            <mxRectangle width="20" height="36" as="alternateBounds" />
          </mxGeometry>
        </mxCell>
        <mxCell id="QVAilVogzxP5J94PL00P-162" value="" style="shape=partialRectangle;html=1;whiteSpace=wrap;connectable=0;overflow=hidden;fillColor=#dae8fc;top=0;left=0;bottom=0;right=0;pointerEvents=1;strokeColor=#6c8ebf;" vertex="1" parent="QVAilVogzxP5J94PL00P-160">
          <mxGeometry x="20" width="49" height="36" as="geometry">
            <mxRectangle width="49" height="36" as="alternateBounds" />
          </mxGeometry>
        </mxCell>
        <mxCell id="QVAilVogzxP5J94PL00P-163" value="" style="shape=partialRectangle;html=1;whiteSpace=wrap;connectable=0;overflow=hidden;fillColor=#dae8fc;top=0;left=0;bottom=0;right=0;pointerEvents=1;strokeColor=#6c8ebf;" vertex="1" parent="QVAilVogzxP5J94PL00P-160">
          <mxGeometry x="69" width="34" height="36" as="geometry">
            <mxRectangle width="34" height="36" as="alternateBounds" />
          </mxGeometry>
        </mxCell>
        <mxCell id="QVAilVogzxP5J94PL00P-164" value="" style="shape=partialRectangle;html=1;whiteSpace=wrap;connectable=0;overflow=hidden;fillColor=#dae8fc;top=0;left=0;bottom=0;right=0;pointerEvents=1;strokeColor=#6c8ebf;" vertex="1" parent="QVAilVogzxP5J94PL00P-160">
          <mxGeometry x="103" width="34" height="36" as="geometry">
            <mxRectangle width="34" height="36" as="alternateBounds" />
          </mxGeometry>
        </mxCell>
        <mxCell id="QVAilVogzxP5J94PL00P-165" value="" style="shape=partialRectangle;html=1;whiteSpace=wrap;connectable=0;overflow=hidden;fillColor=#dae8fc;top=0;left=0;bottom=0;right=0;pointerEvents=1;strokeColor=#6c8ebf;" vertex="1" parent="QVAilVogzxP5J94PL00P-160">
          <mxGeometry x="137" width="34" height="36" as="geometry">
            <mxRectangle width="34" height="36" as="alternateBounds" />
          </mxGeometry>
        </mxCell>
        <mxCell id="QVAilVogzxP5J94PL00P-166" value="" style="shape=partialRectangle;html=1;whiteSpace=wrap;connectable=0;overflow=hidden;fillColor=#dae8fc;top=0;left=0;bottom=0;right=0;pointerEvents=1;strokeColor=#6c8ebf;" vertex="1" parent="QVAilVogzxP5J94PL00P-160">
          <mxGeometry x="171" width="35" height="36" as="geometry">
            <mxRectangle width="35" height="36" as="alternateBounds" />
          </mxGeometry>
        </mxCell>
        <mxCell id="QVAilVogzxP5J94PL00P-167" value="" style="shape=partialRectangle;html=1;whiteSpace=wrap;connectable=0;overflow=hidden;fillColor=#dae8fc;top=0;left=0;bottom=0;right=0;pointerEvents=1;strokeColor=#6c8ebf;" vertex="1" parent="QVAilVogzxP5J94PL00P-160">
          <mxGeometry x="206" width="34" height="36" as="geometry">
            <mxRectangle width="34" height="36" as="alternateBounds" />
          </mxGeometry>
        </mxCell>
      </root>
    </mxGraphModel>
  </diagram>
</mxfile>
